<svg width="225" height="20" viewBox="0 0 225 20" fill="none" xmlns="http://www.w3.org/2000/svg">
<g clip-path="url(#clip0_1798_52740)">
<path fill-rule="evenodd" clip-rule="evenodd" d="M10.8112 10.9065C10.1112 11.4065 9.31118 11.7065 8.01118 11.6065C5.71118 11.5065 4.41118 9.80655 4.41118 7.80655C4.41118 5.80655 5.81118 4.00655 8.01118 4.00655C9.31118 4.00655 10.0112 4.20655 10.7112 4.70655L13.0112 1.70655C11.4928 0.546751 9.62085 -0.0536966 7.71118 0.00654589C6.67986 -0.0368604 5.65086 0.135978 4.69032 0.513955C3.72978 0.891931 2.85894 1.46668 2.13376 2.20128C1.40859 2.93587 0.845117 3.81405 0.479566 4.77939C0.114015 5.74473 -0.045533 6.77587 0.0111765 7.80655C0.0111765 12.2065 3.21118 15.4065 7.71118 15.4065C9.71118 15.4065 11.6112 15.0065 12.9112 13.9065L10.8112 10.9065ZM69.2112 7.70655C69.2112 5.50655 67.3112 3.70655 63.8112 3.70655C62.0112 3.70655 60.7112 4.00655 59.9112 4.30655L60.6112 7.20655C64.5112 6.00655 65.8112 7.30655 65.6112 8.90655C65.6112 8.90655 64.1112 8.10655 62.4112 8.10655C60.0112 8.10655 58.6112 9.80655 58.6112 11.7065C58.6112 14.1065 60.1112 15.3065 62.4112 15.3065C63.0238 15.3183 63.631 15.1892 64.1858 14.9291C64.7407 14.669 65.2283 14.285 65.6112 13.8065V15.0065H69.2112V7.80655V7.70655ZM63.6112 12.7065C62.7112 12.7065 62.3112 12.2065 62.3112 11.4065C62.3112 10.7065 62.9112 10.2065 63.6112 10.2065C64.5112 10.2065 65.0112 10.3065 65.5112 10.5065H65.6112C65.6112 11.5065 65.0112 12.7065 63.6112 12.7065ZM13.3112 9.60655C13.3112 6.20655 15.9112 3.80655 19.3112 3.80655C22.7112 3.80655 25.3112 6.20655 25.3112 9.60655C25.3112 13.0065 22.7112 15.4065 19.3112 15.4065C15.9112 15.4065 13.3112 13.0065 13.3112 9.60655ZM17.1112 9.60655C17.1112 11.1065 18.0112 12.1065 19.3112 12.1065C20.6112 12.1065 21.5112 11.0065 21.5112 9.60655C21.5112 8.20655 20.6112 7.20655 19.3112 7.20655C18.0112 7.20655 17.1112 8.20655 17.1112 9.60655ZM33.3112 3.80655C32.0112 3.80655 30.8112 4.50655 30.0112 5.50655V4.10655H26.5112V15.1065H30.0112V8.70655C30.0112 8.2822 30.1797 7.87523 30.4798 7.57517C30.7799 7.27512 31.1868 7.10655 31.6112 7.10655C32.0355 7.10655 32.4425 7.27512 32.7425 7.57517C33.0426 7.87523 33.2112 8.2822 33.2112 8.70655V15.1065H36.8112V7.30655C36.8112 5.30655 35.5112 3.80655 33.3112 3.80655ZM53.3112 10.4065C53.3112 11.4065 54.0112 12.1065 55.3112 12.1065C55.8112 12.1065 56.3112 11.9065 56.8112 11.7065L57.8112 14.5065C57.1112 14.9065 55.7112 15.5065 54.1112 15.5065C51.4112 15.5065 49.8112 14.1065 49.8112 12.2065V1.20655H53.3112V4.20655H56.7112L56.5112 7.20655H53.3112V10.4065ZM58.3112 14.1065V14.2065V14.1065ZM39.3112 11.8065L38.0112 13.9065C39.5112 14.9065 41.3112 15.5065 43.3112 15.5065C46.3112 15.5065 48.0112 14.0065 48.0112 11.6065C48.0112 9.30655 46.4112 8.60655 43.7112 7.80655C42.7112 7.50655 42.4112 7.20655 42.4112 6.80655C42.4449 6.66033 42.519 6.52654 42.6251 6.42044C42.7312 6.31435 42.865 6.24023 43.0112 6.20655C44.0112 6.00655 45.4112 6.50655 46.6112 7.20655L47.8112 5.10655C46.5112 4.30655 44.8112 3.70655 43.1112 3.70655C40.3112 3.70655 38.4112 5.20655 38.4112 7.70655C38.4112 9.90655 40.1112 10.7065 42.8112 11.4065C43.8112 11.7065 44.0112 12.1065 44.0112 12.3065C44.0112 12.5065 43.8112 12.8065 43.4112 12.9065C41.93 12.9943 40.4592 12.6091 39.2112 11.8065H39.3112Z" fill="#0078D2"/>
<path style="mix-blend-mode:overlay" fill-rule="evenodd" clip-rule="evenodd" d="M10.8112 10.9065C10.1112 11.4065 9.31118 11.7065 8.01118 11.6065C5.71118 11.5065 4.41118 9.80655 4.41118 7.80655C4.41118 5.80655 5.81118 4.00655 8.01118 4.00655C9.31118 4.00655 10.0112 4.20655 10.7112 4.70655L13.0112 1.70655C11.4928 0.546751 9.62085 -0.0536966 7.71118 0.00654589C6.67986 -0.0368604 5.65086 0.135978 4.69032 0.513955C3.72978 0.891931 2.85894 1.46668 2.13376 2.20128C1.40859 2.93587 0.845117 3.81405 0.479566 4.77939C0.114015 5.74473 -0.045533 6.77587 0.0111765 7.80655C0.0111765 12.2065 3.21118 15.4065 7.71118 15.4065C9.71118 15.4065 11.6112 15.0065 12.9112 13.9065L10.8112 10.9065ZM69.2112 7.70655C69.2112 5.50655 67.3112 3.70655 63.8112 3.70655C62.0112 3.70655 60.7112 4.00655 59.9112 4.30655L60.6112 7.20655C64.5112 6.00655 65.8112 7.30655 65.6112 8.90655C65.6112 8.90655 64.1112 8.10655 62.4112 8.10655C60.0112 8.10655 58.6112 9.80655 58.6112 11.7065C58.6112 14.1065 60.1112 15.3065 62.4112 15.3065C63.0238 15.3183 63.631 15.1892 64.1858 14.9291C64.7407 14.669 65.2283 14.285 65.6112 13.8065V15.0065H69.2112V7.80655V7.70655ZM63.6112 12.7065C62.7112 12.7065 62.3112 12.2065 62.3112 11.4065C62.3112 10.7065 62.9112 10.2065 63.6112 10.2065C64.5112 10.2065 65.0112 10.3065 65.5112 10.5065H65.6112C65.6112 11.5065 65.0112 12.7065 63.6112 12.7065ZM13.3112 9.60655C13.3112 6.20655 15.9112 3.80655 19.3112 3.80655C22.7112 3.80655 25.3112 6.20655 25.3112 9.60655C25.3112 13.0065 22.7112 15.4065 19.3112 15.4065C15.9112 15.4065 13.3112 13.0065 13.3112 9.60655ZM17.1112 9.60655C17.1112 11.1065 18.0112 12.1065 19.3112 12.1065C20.6112 12.1065 21.5112 11.0065 21.5112 9.60655C21.5112 8.20655 20.6112 7.20655 19.3112 7.20655C18.0112 7.20655 17.1112 8.20655 17.1112 9.60655ZM33.3112 3.80655C32.0112 3.80655 30.8112 4.50655 30.0112 5.50655V4.10655H26.5112V15.1065H30.0112V8.70655C30.0112 8.2822 30.1797 7.87523 30.4798 7.57517C30.7799 7.27512 31.1868 7.10655 31.6112 7.10655C32.0355 7.10655 32.4425 7.27512 32.7425 7.57517C33.0426 7.87523 33.2112 8.2822 33.2112 8.70655V15.1065H36.8112V7.30655C36.8112 5.30655 35.5112 3.80655 33.3112 3.80655ZM53.3112 10.4065C53.3112 11.4065 54.0112 12.1065 55.3112 12.1065C55.8112 12.1065 56.3112 11.9065 56.8112 11.7065L57.8112 14.5065C57.1112 14.9065 55.7112 15.5065 54.1112 15.5065C51.4112 15.5065 49.8112 14.1065 49.8112 12.2065V1.20655H53.3112V4.20655H56.7112L56.5112 7.20655H53.3112V10.4065ZM39.3112 11.8065L38.0112 13.9065C39.5112 14.9065 41.3112 15.5065 43.3112 15.5065C46.3112 15.5065 48.0112 14.0065 48.0112 11.6065C48.0112 9.30655 46.4112 8.60655 43.7112 7.80655C42.7112 7.50655 42.4112 7.20655 42.4112 6.80655C42.4449 6.66033 42.519 6.52654 42.6251 6.42044C42.7312 6.31435 42.865 6.24023 43.0112 6.20655C44.0112 6.00655 45.4112 6.50655 46.6112 7.20655L47.8112 5.10655C46.5112 4.30655 44.8112 3.70655 43.1112 3.70655C40.3112 3.70655 38.4112 5.20655 38.4112 7.70655C38.4112 9.90655 40.1112 10.7065 42.8112 11.4065C43.8112 11.7065 44.0112 12.1065 44.0112 12.3065C44.0112 12.5065 43.8112 12.8065 43.4112 12.9065C41.93 12.9943 40.4592 12.6091 39.2112 11.8065H39.3112Z" fill="url(#paint0_linear_1798_52740)"/>
<path d="M83.0031 15.1972C84.9949 15.1972 86.668 14.4602 87.6439 13.4644V7.11062H82.6446V9.02272H85.5327V12.4486C85.0347 12.9067 84.1384 13.1656 83.2421 13.1656C80.2146 13.1656 78.6013 11.0344 78.6013 7.54881C78.6013 4.12296 80.3939 2.01169 83.1425 2.01169C84.5368 2.01169 85.4331 2.5893 86.17 3.32626L87.4248 1.83243C86.5285 0.916215 85.1343 0 83.0629 0C79.1789 0 76.2112 2.84823 76.2112 7.62848C76.2112 12.4486 79.0992 15.1972 83.0031 15.1972Z" fill="#5C6F7A"/>
<path d="M90.9736 14.9184H93.304V9.36132H95.5149C98.7017 9.36132 101.032 7.90733 101.032 4.70058C101.032 1.37432 98.7017 0.258929 95.4352 0.258929H90.9736V14.9184ZM93.304 7.50897V2.13119H95.1962C97.5465 2.13119 98.7415 2.74864 98.7415 4.70058C98.7415 6.61268 97.6261 7.50897 95.2958 7.50897H93.304Z" fill="#5C6F7A"/>
<path d="M103.889 14.9184H106.1V8.02683C106.1 6.4135 105.901 4.74041 105.801 3.20675H105.901L107.434 6.29399L112.274 14.9184H114.664V0.258929H112.454V7.11062C112.454 8.68412 112.633 10.4767 112.772 11.9705H112.673L111.139 8.88329L106.259 0.258929H103.889V14.9184Z" fill="#5C6F7A"/>
<path d="M117.54 10.158H122.798V8.4451H117.54V10.158Z" fill="#5C6F7A"/>
<path d="M125.635 14.9184H127.965V9.0028H130.435C133.463 9.0028 135.733 7.58864 135.733 4.52132C135.733 1.33449 133.463 0.258929 130.435 0.258929H125.635V14.9184ZM127.965 7.15045V2.13119H130.176C132.288 2.13119 133.443 2.74864 133.443 4.52132C133.443 6.27407 132.288 7.15045 130.176 7.15045H127.965ZM133.662 14.9184H136.251L131.71 7.05086L129.997 8.40527L133.662 14.9184Z" fill="#5C6F7A"/>
<path d="M142.777 15.1972C144.211 15.1972 145.466 14.7192 146.481 14.042L145.685 12.5681C144.868 13.0859 144.051 13.3847 143.076 13.3847C141.183 13.3847 139.869 12.1498 139.689 10.0584H146.8C146.86 9.77959 146.9 9.3414 146.9 8.88329C146.9 5.77613 145.326 3.68477 142.438 3.68477C139.889 3.68477 137.439 5.89564 137.439 9.46091C137.439 13.066 139.789 15.1972 142.777 15.1972ZM139.65 8.46502C139.889 6.55292 141.104 5.49728 142.478 5.49728C144.071 5.49728 144.908 6.57284 144.908 8.46502H139.65Z" fill="#5C6F7A"/>
<path d="M152.465 15.1972C155.154 15.1972 156.608 13.7034 156.608 11.851C156.608 9.79951 154.935 9.10239 153.401 8.52477C152.186 8.08658 151.13 7.72807 151.13 6.79193C151.13 6.03506 151.688 5.43753 152.903 5.43753C153.799 5.43753 154.576 5.8558 155.333 6.39358L156.409 4.97942C155.532 4.2823 154.317 3.68477 152.863 3.68477C150.413 3.68477 148.939 5.05909 148.939 6.89152C148.939 8.76379 150.553 9.54058 152.027 10.0983C153.202 10.5365 154.437 10.9946 154.437 11.9705C154.437 12.8071 153.819 13.4444 152.525 13.4444C151.33 13.4444 150.393 12.9465 149.417 12.1896L148.342 13.6835C149.397 14.5598 150.951 15.1972 152.465 15.1972Z" fill="#5C6F7A"/>
<path d="M159.047 19.36H161.357V15.8147L161.278 13.9623C162.194 14.759 163.19 15.1972 164.166 15.1972C166.636 15.1972 168.886 13.0262 168.886 9.28165C168.886 5.89564 167.313 3.68477 164.544 3.68477C163.309 3.68477 162.134 4.36198 161.178 5.1786H161.118L160.919 3.96362H159.047V19.36ZM163.728 13.2851C163.05 13.2851 162.214 13.0262 161.357 12.2892V6.93136C162.274 6.05498 163.09 5.59687 163.927 5.59687C165.759 5.59687 166.516 7.01103 166.516 9.30157C166.516 11.8709 165.301 13.2851 163.728 13.2851Z" fill="#5C6F7A"/>
<path d="M175.995 15.1972C178.703 15.1972 181.153 13.0859 181.153 9.46091C181.153 5.79605 178.703 3.68477 175.995 3.68477C173.266 3.68477 170.836 5.79605 170.836 9.46091C170.836 13.0859 173.266 15.1972 175.995 15.1972ZM175.995 13.305C174.262 13.305 173.206 11.7714 173.206 9.46091C173.206 7.13053 174.262 5.59687 175.995 5.59687C177.708 5.59687 178.803 7.13053 178.803 9.46091C178.803 11.7714 177.708 13.305 175.995 13.305Z" fill="#5C6F7A"/>
<path d="M183.847 14.9184H186.157V7.15045C187.113 6.1944 187.81 5.67654 188.826 5.67654C190.101 5.67654 190.659 6.4135 190.659 8.3256V14.9184H192.969V8.02683C192.969 5.25827 191.933 3.68477 189.603 3.68477C188.109 3.68477 186.974 4.5014 185.978 5.49728H185.918L185.719 3.96362H183.847V14.9184Z" fill="#5C6F7A"/>
<path d="M199.264 15.1972C201.953 15.1972 203.407 13.7034 203.407 11.851C203.407 9.79951 201.733 9.10239 200.2 8.52477C198.985 8.08658 197.929 7.72807 197.929 6.79193C197.929 6.03506 198.487 5.43753 199.702 5.43753C200.598 5.43753 201.375 5.8558 202.132 6.39358L203.207 4.97942C202.331 4.2823 201.116 3.68477 199.662 3.68477C197.212 3.68477 195.738 5.05909 195.738 6.89152C195.738 8.76379 197.352 9.54058 198.825 10.0983C200.001 10.5365 201.235 10.9946 201.235 11.9705C201.235 12.8071 200.618 13.4444 199.323 13.4444C198.128 13.4444 197.192 12.9465 196.216 12.1896L195.141 13.6835C196.196 14.5598 197.75 15.1972 199.264 15.1972Z" fill="#5C6F7A"/>
<path d="M210.427 15.1972C211.861 15.1972 213.116 14.7192 214.132 14.042L213.335 12.5681C212.518 13.0859 211.702 13.3847 210.726 13.3847C208.833 13.3847 207.519 12.1498 207.34 10.0584H214.45C214.51 9.77959 214.55 9.3414 214.55 8.88329C214.55 5.77613 212.976 3.68477 210.088 3.68477C207.539 3.68477 205.089 5.89564 205.089 9.46091C205.089 13.066 207.439 15.1972 210.427 15.1972ZM207.3 8.46502C207.539 6.55292 208.754 5.49728 210.128 5.49728C211.722 5.49728 212.558 6.57284 212.558 8.46502H207.3Z" fill="#5C6F7A"/>
<path d="M220.115 15.1972C222.804 15.1972 224.258 13.7034 224.258 11.851C224.258 9.79951 222.585 9.10239 221.051 8.52477C219.836 8.08658 218.78 7.72807 218.78 6.79193C218.78 6.03506 219.338 5.43753 220.553 5.43753C221.449 5.43753 222.226 5.8558 222.983 6.39358L224.059 4.97942C223.182 4.2823 221.967 3.68477 220.513 3.68477C218.063 3.68477 216.59 5.05909 216.59 6.89152C216.59 8.76379 218.203 9.54058 219.677 10.0983C220.852 10.5365 222.087 10.9946 222.087 11.9705C222.087 12.8071 221.469 13.4444 220.175 13.4444C218.98 13.4444 218.044 12.9465 217.068 12.1896L215.992 13.6835C217.048 14.5598 218.601 15.1972 220.115 15.1972Z" fill="#5C6F7A"/>
</g>
<defs>
<linearGradient id="paint0_linear_1798_52740" x1="51.5112" y1="-23.7935" x2="14.9112" y2="38.4065" gradientUnits="userSpaceOnUse">
<stop stop-color="white" stop-opacity="0.6"/>
<stop offset="1" stop-color="white" stop-opacity="0"/>
</linearGradient>
<clipPath id="clip0_1798_52740">
<rect width="224.258" height="19.36" fill="white"/>
</clipPath>
</defs>
</svg>
